<?xml version="1.0" encoding="UTF-8" standalone="no"?>
<!-- Created with Inkscape (http://www.inkscape.org/) -->

<svg
   width="8mm"
   height="8mm"
   viewBox="0 0 8.0000001 8"
   version="1.1"
   id="svg1"
   xmlns="http://www.w3.org/2000/svg"
   xmlns:svg="http://www.w3.org/2000/svg">
  <defs
     id="defs1" />
  <g
     id="layer1"
     transform="translate(-33.700269,-105.38685)">
    <path
       id="text1"
       style="font-style:italic;font-stretch:condensed;font-size:4.23333px;font-family:Arial;-inkscape-font-specification:'Arial Italic Condensed';letter-spacing:0.0132292px;word-spacing:0.0291042px;fill:#ffffff;stroke-width:1.10689;paint-order:stroke markers fill"
       d="m 34.863286,107.21882 -0.434643,2.74663 h 0.278795 l 0.176628,-1.11475 h 0.519493 c 0.188173,0 0.348638,-0.03 0.481399,-0.0899 0.133914,-0.0612 0.241853,-0.17422 0.323817,-0.3391 0.08312,-0.16613 0.12468,-0.34224 0.12468,-0.52836 0,-0.14363 -0.02598,-0.26979 -0.07793,-0.37845 -0.05079,-0.10864 -0.113134,-0.18482 -0.187018,-0.22859 -0.07273,-0.0448 -0.184132,-0.0674 -0.334207,-0.0674 z m 1.9507,0 -0.434644,2.74663 h 0.278796 l 0.176628,-1.11475 h 0.519493 c 0.188173,0 0.348639,-0.03 0.481398,-0.0899 0.133914,-0.0612 0.241853,-0.17422 0.323817,-0.3391 0.08312,-0.16613 0.12468,-0.34224 0.12468,-0.52836 0,-0.14363 -0.02598,-0.26979 -0.07793,-0.37845 -0.05079,-0.10864 -0.113134,-0.18482 -0.187017,-0.22859 -0.07273,-0.0448 -0.184132,-0.0674 -0.334208,-0.0674 z m 1.950266,0 -0.434643,2.74663 h 0.278794 l 0.176628,-1.11475 h 0.519494 c 0.188172,0 0.348639,-0.03 0.481399,-0.0899 0.133914,-0.0612 0.241853,-0.17422 0.323818,-0.3391 0.08312,-0.16613 0.124678,-0.34224 0.124678,-0.52836 0,-0.14363 -0.02597,-0.26979 -0.07793,-0.37845 -0.05079,-0.10864 -0.113134,-0.18482 -0.187018,-0.22859 -0.07273,-0.0448 -0.184132,-0.0674 -0.334208,-0.0674 z m -3.668925,0.2979 h 0.533347 c 0.129298,0 0.218767,0.0119 0.268404,0.0357 0.04964,0.0238 0.08889,0.0644 0.117752,0.12177 0.02886,0.0575 0.0433,0.13426 0.0433,0.23045 0,0.12489 -0.02828,0.2398 -0.08485,0.34473 -0.05542,0.10492 -0.124679,0.17987 -0.207798,0.22482 -0.08312,0.0437 -0.207797,0.0656 -0.374035,0.0656 H 34.93256 Z m 1.9507,0 h 0.533346 c 0.129297,0 0.218767,0.0119 0.268404,0.0357 0.04964,0.0238 0.08889,0.0644 0.117753,0.12177 0.02886,0.0575 0.0433,0.13426 0.0433,0.23045 0,0.12489 -0.02827,0.2398 -0.08485,0.34473 -0.05542,0.10492 -0.12468,0.17987 -0.207799,0.22482 -0.08312,0.0437 -0.207797,0.0656 -0.374035,0.0656 h -0.458889 z m 1.950266,0 h 0.533347 c 0.129297,0 0.218767,0.0119 0.268404,0.0357 0.04964,0.0238 0.08889,0.0644 0.117752,0.12177 0.02886,0.0575 0.0433,0.13426 0.0433,0.23045 0,0.12489 -0.02829,0.2398 -0.08485,0.34473 -0.05542,0.10492 -0.124678,0.17987 -0.207798,0.22482 -0.08312,0.0437 -0.207797,0.0656 -0.374034,0.0656 h -0.458887 z m 0.402138,1.86516 v 1.16723 h -1.211619 v 0.49179 h 1.211619 v 1.17614 h 0.516349 v -1.17614 h 1.211619 v -0.49179 H 39.91478 v -1.16723 z" />
  </g>
</svg>
